<svg width="400" height="250" fill="none" xmlns="http://www.w3.org/2000/svg"><ellipse cx="315.46" cy="165.24" rx="83.54" ry="83.96" fill="#fff"/><path fill-rule="evenodd" clip-rule="evenodd" d="M394.27 240.49h-21.02a95.31 95.31 0 0 0 14.6-14.07c3.98 8.84 6.42 14.07 6.42 14.07Zm-150.34-13.07a95.29 95.29 0 0 0 13.74 13.07h-32.79a83.71 83.71 0 0 0 19.05-13.07Zm0-124.35a94.16 94.16 0 0 1 83.44-32.13c-11.37-32.61-27.3-45.76-82.84-44.31-26-47.53-114.98-22.09-163.14 20.6-20.49 18.15-26.93 37.52-34.13 59.2-3.9 11.74-8.03 24.16-14.74 37.42a277.9 277.9 0 0 1-9.3 16.68c-5.44 9.2-10.3 17.42-14.34 30.06-6 18.78-7.88 49.9-7.88 49.9h149.68a84 84 0 0 1-46.44-75.25c0-46.37 37.4-83.96 83.54-83.96a83 83 0 0 1 56.15 21.78Z" fill="#fff"/></svg>